<svg xmlns="http://www.w3.org/2000/svg" id="diagram" width="560" height="510">
  <defs>
    <clipPath id="clipPath-0">
      <rect x="30.0" y="5.0" width="500.0" height="500.0"/>
    </clipPath>
    <clipPath id="clipPath-1">
      <rect x="30.0" y="5.0" width="500.0" height="500.0"/>
    </clipPath>
  </defs>
  <g id="grid-axes">
    <g id="grid" stroke="#ccc" stroke-width="1">
      <line id="line-0" x1="37.7" y1="505.0" x2="37.7" y2="5.0"/>
      <line id="line-1" x1="98.3" y1="505.0" x2="98.3" y2="5.0"/>
      <line id="line-2" x1="158.9" y1="505.0" x2="158.9" y2="5.0"/>
      <line id="line-3" x1="219.4" y1="505.0" x2="219.4" y2="5.0"/>
      <line id="line-4" x1="280.0" y1="505.0" x2="280.0" y2="5.0"/>
      <line id="line-5" x1="340.6" y1="505.0" x2="340.6" y2="5.0"/>
      <line id="line-6" x1="401.1" y1="505.0" x2="401.1" y2="5.0"/>
      <line id="line-7" x1="461.7" y1="505.0" x2="461.7" y2="5.0"/>
      <line id="line-8" x1="522.3" y1="505.0" x2="522.3" y2="5.0"/>
      <line id="line-9" x1="30.0" y1="497.3" x2="530.0" y2="497.3"/>
      <line id="line-10" x1="30.0" y1="436.7" x2="530.0" y2="436.7"/>
      <line id="line-11" x1="30.0" y1="376.1" x2="530.0" y2="376.1"/>
      <line id="line-12" x1="30.0" y1="315.6" x2="530.0" y2="315.6"/>
      <line id="line-13" x1="30.0" y1="255.0" x2="530.0" y2="255.0"/>
      <line id="line-14" x1="30.0" y1="194.4" x2="530.0" y2="194.4"/>
      <line id="line-15" x1="30.0" y1="133.9" x2="530.0" y2="133.9"/>
      <line id="line-16" x1="30.0" y1="73.3" x2="530.0" y2="73.3"/>
      <line id="line-17" x1="30.0" y1="12.7" x2="530.0" y2="12.7"/>
    </g>
    <g id="axes" stroke="black" stroke-width="2">
      <line id="line-18" x1="30.0" y1="255.0" x2="530.0" y2="255.0" stroke="black" stroke-width="2"/>
      <g id="g-0">
        <line id="line-19" x1="37.7" y1="258.0" x2="37.7" y2="252.0"/>
        <line id="line-20" x1="68.0" y1="258.0" x2="68.0" y2="252.0"/>
        <line id="line-21" x1="98.3" y1="258.0" x2="98.3" y2="252.0"/>
        <line id="line-22" x1="128.6" y1="258.0" x2="128.6" y2="252.0"/>
        <line id="line-23" x1="158.9" y1="258.0" x2="158.9" y2="252.0"/>
        <line id="line-24" x1="189.1" y1="258.0" x2="189.1" y2="252.0"/>
        <line id="line-25" x1="219.4" y1="258.0" x2="219.4" y2="252.0"/>
        <line id="line-26" x1="249.7" y1="258.0" x2="249.7" y2="252.0"/>
        <line id="line-27" x1="310.3" y1="258.0" x2="310.3" y2="252.0"/>
        <line id="line-28" x1="340.6" y1="258.0" x2="340.6" y2="252.0"/>
        <line id="line-29" x1="370.9" y1="258.0" x2="370.9" y2="252.0"/>
        <line id="line-30" x1="401.1" y1="258.0" x2="401.1" y2="252.0"/>
        <line id="line-31" x1="431.4" y1="258.0" x2="431.4" y2="252.0"/>
        <line id="line-32" x1="461.7" y1="258.0" x2="461.7" y2="252.0"/>
        <line id="line-33" x1="492.0" y1="258.0" x2="492.0" y2="252.0"/>
        <line id="line-34" x1="522.3" y1="258.0" x2="522.3" y2="252.0"/>
        <line id="line-35" x1="-481.2" y1="258.0" x2="-481.2" y2="252.0"/>
        <line id="line-36" x1="-290.9" y1="258.0" x2="-290.9" y2="252.0"/>
        <line id="line-37" x1="-100.6" y1="258.0" x2="-100.6" y2="252.0"/>
        <line id="line-38" x1="89.7" y1="258.0" x2="89.7" y2="252.0"/>
        <line id="line-39" x1="470.3" y1="258.0" x2="470.3" y2="252.0"/>
        <line id="line-40" x1="660.6" y1="258.0" x2="660.6" y2="252.0"/>
        <line id="line-41" x1="850.9" y1="258.0" x2="850.9" y2="252.0"/>
        <line id="line-42" x1="1041.2" y1="258.0" x2="1041.2" y2="252.0"/>
      </g>
      <line id="line-43" x1="280.0" y1="505.0" x2="280.0" y2="5.0" stroke="black" stroke-width="2"/>
      <g>
        <line id="line-44" x1="277.0" y1="497.3" x2="283.0" y2="497.3"/>
        <line id="line-45" x1="277.0" y1="376.1" x2="283.0" y2="376.1"/>
        <line id="line-46" x1="277.0" y1="133.9" x2="283.0" y2="133.9"/>
        <line id="line-47" x1="277.0" y1="12.7" x2="283.0" y2="12.7"/>
      </g>
    </g>
    <g id="label-0" transform="translate(526.0,251.0) translate(-10.4,-8.2)">
      <g id="g-1">
        <svg xmlns:xlink="http://www.w3.org/1999/xlink" style="vertical-align: -0.200px" width="10.352px" height="8.200px" role="img" focusable="false" viewBox="0 -442 572 453" x="0.0" y="0.0">
          <defs>
            <path id="MJX-2-TEX-I-1D465" d="M52 289Q59 331 106 386T222 442Q257 442 286 424T329 379Q371 442 430 442Q467 442 494 420T522 361Q522 332 508 314T481 292T458 288Q439 288 427 299T415 328Q415 374 465 391Q454 404 425 404Q412 404 406 402Q368 386 350 336Q290 115 290 78Q290 50 306 38T341 26Q378 26 414 59T463 140Q466 150 469 151T485 153H489Q504 153 504 145Q504 144 502 134Q486 77 440 33T333 -11Q263 -11 227 52Q186 -10 133 -10H127Q78 -10 57 16T35 71Q35 103 54 123T99 143Q142 143 142 101Q142 81 130 66T107 46T94 41L91 40Q91 39 97 36T113 29T132 26Q168 26 194 71Q203 87 217 139T245 247T261 313Q266 340 266 352Q266 380 251 392T217 404Q177 404 142 372T93 290Q91 281 88 280T72 278H58Q52 284 52 289Z"/>
          </defs>
          <g stroke="currentColor" fill="currentColor" stroke-width="0" transform="scale(1,-1)">
            <g data-mml-node="math">
              <g data-mml-node="mi" data-semantic-type="identifier" data-semantic-role="latinletter" data-semantic-font="italic" data-semantic-id="0" data-semantic-speech="">
                <use data-c="1D465" xlink:href="#MJX-2-TEX-I-1D465"/>
              </g>
            </g>
          </g>
        </svg>
      </g>
    </g>
    <g id="label-1" transform="translate(-481.2,266.0) translate(-41.9,-0.0)">
      <g id="g-2">
        <svg xmlns:xlink="http://www.w3.org/1999/xlink" style="vertical-align: -1.488px" width="83.728px" height="13.536px" role="img" focusable="false" viewBox="0 -666 4626 748" x="0.0" y="0.0">
          <defs>
            <path id="MJX-3-TEX-N-2212" d="M84 237T84 250T98 270H679Q694 262 694 250T679 230H98Q84 237 84 250Z"/>
            <path id="MJX-3-TEX-N-36" d="M42 313Q42 476 123 571T303 666Q372 666 402 630T432 550Q432 525 418 510T379 495Q356 495 341 509T326 548Q326 592 373 601Q351 623 311 626Q240 626 194 566Q147 500 147 364L148 360Q153 366 156 373Q197 433 263 433H267Q313 433 348 414Q372 400 396 374T435 317Q456 268 456 210V192Q456 169 451 149Q440 90 387 34T253 -22Q225 -22 199 -14T143 16T92 75T56 172T42 313ZM257 397Q227 397 205 380T171 335T154 278T148 216Q148 133 160 97T198 39Q222 21 251 21Q302 21 329 59Q342 77 347 104T352 209Q352 289 347 316T329 361Q302 397 257 397Z"/>
            <path id="MJX-3-TEX-N-2E" d="M78 60Q78 84 95 102T138 120Q162 120 180 104T199 61Q199 36 182 18T139 0T96 17T78 60Z"/>
            <path id="MJX-3-TEX-N-32" d="M109 429Q82 429 66 447T50 491Q50 562 103 614T235 666Q326 666 387 610T449 465Q449 422 429 383T381 315T301 241Q265 210 201 149L142 93L218 92Q375 92 385 97Q392 99 409 186V189H449V186Q448 183 436 95T421 3V0H50V19V31Q50 38 56 46T86 81Q115 113 136 137Q145 147 170 174T204 211T233 244T261 278T284 308T305 340T320 369T333 401T340 431T343 464Q343 527 309 573T212 619Q179 619 154 602T119 569T109 550Q109 549 114 549Q132 549 151 535T170 489Q170 464 154 447T109 429Z"/>
            <path id="MJX-3-TEX-N-38" d="M70 417T70 494T124 618T248 666Q319 666 374 624T429 515Q429 485 418 459T392 417T361 389T335 371T324 363L338 354Q352 344 366 334T382 323Q457 264 457 174Q457 95 399 37T249 -22Q159 -22 101 29T43 155Q43 263 172 335L154 348Q133 361 127 368Q70 417 70 494ZM286 386L292 390Q298 394 301 396T311 403T323 413T334 425T345 438T355 454T364 471T369 491T371 513Q371 556 342 586T275 624Q268 625 242 625Q201 625 165 599T128 534Q128 511 141 492T167 463T217 431Q224 426 228 424L286 386ZM250 21Q308 21 350 55T392 137Q392 154 387 169T375 194T353 216T330 234T301 253T274 270Q260 279 244 289T218 306L210 311Q204 311 181 294T133 239T107 157Q107 98 150 60T250 21Z"/>
            <path id="MJX-3-TEX-N-33" d="M127 463Q100 463 85 480T69 524Q69 579 117 622T233 665Q268 665 277 664Q351 652 390 611T430 522Q430 470 396 421T302 350L299 348Q299 347 308 345T337 336T375 315Q457 262 457 175Q457 96 395 37T238 -22Q158 -22 100 21T42 130Q42 158 60 175T105 193Q133 193 151 175T169 130Q169 119 166 110T159 94T148 82T136 74T126 70T118 67L114 66Q165 21 238 21Q293 21 321 74Q338 107 338 175V195Q338 290 274 322Q259 328 213 329L171 330L168 332Q166 335 166 348Q166 366 174 366Q202 366 232 371Q266 376 294 413T322 525V533Q322 590 287 612Q265 626 240 626Q208 626 181 615T143 592T132 580H135Q138 579 143 578T153 573T165 566T175 555T183 540T186 520Q186 498 172 481T127 463Z"/>
            <path id="MJX-3-TEX-N-31" d="M213 578L200 573Q186 568 160 563T102 556H83V602H102Q149 604 189 617T245 641T273 663Q275 666 285 666Q294 666 302 660V361L303 61Q310 54 315 52T339 48T401 46H427V0H416Q395 3 257 3Q121 3 100 0H88V46H114Q136 46 152 46T177 47T193 50T201 52T207 57T213 61V578Z"/>
            <path id="MJX-3-TEX-N-39" d="M352 287Q304 211 232 211Q154 211 104 270T44 396Q42 412 42 436V444Q42 537 111 606Q171 666 243 666Q245 666 249 666T257 665H261Q273 665 286 663T323 651T370 619T413 560Q456 472 456 334Q456 194 396 97Q361 41 312 10T208 -22Q147 -22 108 7T68 93T121 149Q143 149 158 135T173 96Q173 78 164 65T148 49T135 44L131 43Q131 41 138 37T164 27T206 22H212Q272 22 313 86Q352 142 352 280V287ZM244 248Q292 248 321 297T351 430Q351 508 343 542Q341 552 337 562T323 588T293 615T246 625Q208 625 181 598Q160 576 154 546T147 441Q147 358 152 329T172 282Q197 248 244 248Z"/>
            <path id="MJX-3-TEX-N-2062" d=""/>
            <path id="MJX-3-TEX-I-1D70B" d="M132 -11Q98 -11 98 22V33L111 61Q186 219 220 334L228 358H196Q158 358 142 355T103 336Q92 329 81 318T62 297T53 285Q51 284 38 284Q19 284 19 294Q19 300 38 329T93 391T164 429Q171 431 389 431Q549 431 553 430Q573 423 573 402Q573 371 541 360Q535 358 472 358H408L405 341Q393 269 393 222Q393 170 402 129T421 65T431 37Q431 20 417 5T381 -10Q370 -10 363 -7T347 17T331 77Q330 86 330 121Q330 170 339 226T357 318T367 358H269L268 354Q268 351 249 275T206 114T175 17Q164 -11 132 -11Z"/>
          </defs>
          <g stroke="currentColor" fill="currentColor" stroke-width="0" transform="scale(1,-1)">
            <g data-mml-node="math" data-semantic-type="prefixop" data-semantic-role="negative" data-semantic-id="5" data-semantic-children="4" data-semantic-content="0" data-semantic-speech="">
              <g data-mml-node="mo" data-semantic-type="operator" data-semantic-role="subtraction" data-semantic-id="0" data-semantic-parent="5" data-semantic-operator="prefixop,−" data-semantic-speech="">
                <use data-c="2212" xlink:href="#MJX-3-TEX-N-2212"/>
              </g>
              <g data-mml-node="mrow" data-semantic-type="infixop" data-semantic-role="implicit" data-semantic-id="4" data-semantic-children="1,2" data-semantic-content="3" data-semantic-parent="5" data-semantic-speech="" transform="translate(778,0)">
                <g data-mml-node="mn" data-semantic-type="number" data-semantic-role="float" data-semantic-font="normal" data-semantic-id="1" data-semantic-parent="4" data-semantic-speech="">
                  <use data-c="36" xlink:href="#MJX-3-TEX-N-36"/>
                  <use data-c="2E" xlink:href="#MJX-3-TEX-N-2E" transform="translate(500,0)"/>
                  <use data-c="32" xlink:href="#MJX-3-TEX-N-32" transform="translate(778,0)"/>
                  <use data-c="38" xlink:href="#MJX-3-TEX-N-38" transform="translate(1278,0)"/>
                  <use data-c="33" xlink:href="#MJX-3-TEX-N-33" transform="translate(1778,0)"/>
                  <use data-c="31" xlink:href="#MJX-3-TEX-N-31" transform="translate(2278,0)"/>
                  <use data-c="39" xlink:href="#MJX-3-TEX-N-39" transform="translate(2778,0)"/>
                </g>
                <g data-mml-node="mo" data-semantic-type="operator" data-semantic-role="multiplication" data-semantic-id="3" data-semantic-parent="4" data-semantic-added="true" data-semantic-operator="infixop,⁢" data-semantic-speech="" transform="translate(3278,0)">
                  <use data-c="2062" xlink:href="#MJX-3-TEX-N-2062"/>
                </g>
                <g data-mml-node="mi" data-semantic-type="identifier" data-semantic-role="greekletter" data-semantic-font="italic" data-semantic-id="2" data-semantic-parent="4" data-semantic-speech="" transform="translate(3278,0)">
                  <use data-c="1D70B" xlink:href="#MJX-3-TEX-I-1D70B"/>
                </g>
              </g>
            </g>
          </g>
        </svg>
      </g>
    </g>
    <g id="label-2" transform="translate(-290.9,266.0) translate(-41.9,-0.0)">
      <g id="g-3">
        <svg xmlns:xlink="http://www.w3.org/1999/xlink" style="vertical-align: -1.488px" width="83.728px" height="13.736px" role="img" focusable="false" viewBox="0 -677 4626 759" x="0.0" y="0.0">
          <defs>
            <path id="MJX-4-TEX-N-2212" d="M84 237T84 250T98 270H679Q694 262 694 250T679 230H98Q84 237 84 250Z"/>
            <path id="MJX-4-TEX-N-34" d="M462 0Q444 3 333 3Q217 3 199 0H190V46H221Q241 46 248 46T265 48T279 53T286 61Q287 63 287 115V165H28V211L179 442Q332 674 334 675Q336 677 355 677H373L379 671V211H471V165H379V114Q379 73 379 66T385 54Q393 47 442 46H471V0H462ZM293 211V545L74 212L183 211H293Z"/>
            <path id="MJX-4-TEX-N-2E" d="M78 60Q78 84 95 102T138 120Q162 120 180 104T199 61Q199 36 182 18T139 0T96 17T78 60Z"/>
            <path id="MJX-4-TEX-N-37" d="M55 458Q56 460 72 567L88 674Q88 676 108 676H128V672Q128 662 143 655T195 646T364 644H485V605L417 512Q408 500 387 472T360 435T339 403T319 367T305 330T292 284T284 230T278 162T275 80Q275 66 275 52T274 28V19Q270 2 255 -10T221 -22Q210 -22 200 -19T179 0T168 40Q168 198 265 368Q285 400 349 489L395 552H302Q128 552 119 546Q113 543 108 522T98 479L95 458V455H55V458Z"/>
            <path id="MJX-4-TEX-N-31" d="M213 578L200 573Q186 568 160 563T102 556H83V602H102Q149 604 189 617T245 641T273 663Q275 666 285 666Q294 666 302 660V361L303 61Q310 54 315 52T339 48T401 46H427V0H416Q395 3 257 3Q121 3 100 0H88V46H114Q136 46 152 46T177 47T193 50T201 52T207 57T213 61V578Z"/>
            <path id="MJX-4-TEX-N-32" d="M109 429Q82 429 66 447T50 491Q50 562 103 614T235 666Q326 666 387 610T449 465Q449 422 429 383T381 315T301 241Q265 210 201 149L142 93L218 92Q375 92 385 97Q392 99 409 186V189H449V186Q448 183 436 95T421 3V0H50V19V31Q50 38 56 46T86 81Q115 113 136 137Q145 147 170 174T204 211T233 244T261 278T284 308T305 340T320 369T333 401T340 431T343 464Q343 527 309 573T212 619Q179 619 154 602T119 569T109 550Q109 549 114 549Q132 549 151 535T170 489Q170 464 154 447T109 429Z"/>
            <path id="MJX-4-TEX-N-33" d="M127 463Q100 463 85 480T69 524Q69 579 117 622T233 665Q268 665 277 664Q351 652 390 611T430 522Q430 470 396 421T302 350L299 348Q299 347 308 345T337 336T375 315Q457 262 457 175Q457 96 395 37T238 -22Q158 -22 100 21T42 130Q42 158 60 175T105 193Q133 193 151 175T169 130Q169 119 166 110T159 94T148 82T136 74T126 70T118 67L114 66Q165 21 238 21Q293 21 321 74Q338 107 338 175V195Q338 290 274 322Q259 328 213 329L171 330L168 332Q166 335 166 348Q166 366 174 366Q202 366 232 371Q266 376 294 413T322 525V533Q322 590 287 612Q265 626 240 626Q208 626 181 615T143 592T132 580H135Q138 579 143 578T153 573T165 566T175 555T183 540T186 520Q186 498 172 481T127 463Z"/>
            <path id="MJX-4-TEX-N-39" d="M352 287Q304 211 232 211Q154 211 104 270T44 396Q42 412 42 436V444Q42 537 111 606Q171 666 243 666Q245 666 249 666T257 665H261Q273 665 286 663T323 651T370 619T413 560Q456 472 456 334Q456 194 396 97Q361 41 312 10T208 -22Q147 -22 108 7T68 93T121 149Q143 149 158 135T173 96Q173 78 164 65T148 49T135 44L131 43Q131 41 138 37T164 27T206 22H212Q272 22 313 86Q352 142 352 280V287ZM244 248Q292 248 321 297T351 430Q351 508 343 542Q341 552 337 562T323 588T293 615T246 625Q208 625 181 598Q160 576 154 546T147 441Q147 358 152 329T172 282Q197 248 244 248Z"/>
            <path id="MJX-4-TEX-N-2062" d=""/>
            <path id="MJX-4-TEX-I-1D70B" d="M132 -11Q98 -11 98 22V33L111 61Q186 219 220 334L228 358H196Q158 358 142 355T103 336Q92 329 81 318T62 297T53 285Q51 284 38 284Q19 284 19 294Q19 300 38 329T93 391T164 429Q171 431 389 431Q549 431 553 430Q573 423 573 402Q573 371 541 360Q535 358 472 358H408L405 341Q393 269 393 222Q393 170 402 129T421 65T431 37Q431 20 417 5T381 -10Q370 -10 363 -7T347 17T331 77Q330 86 330 121Q330 170 339 226T357 318T367 358H269L268 354Q268 351 249 275T206 114T175 17Q164 -11 132 -11Z"/>
          </defs>
          <g stroke="currentColor" fill="currentColor" stroke-width="0" transform="scale(1,-1)">
            <g data-mml-node="math" data-semantic-type="prefixop" data-semantic-role="negative" data-semantic-id="5" data-semantic-children="4" data-semantic-content="0" data-semantic-speech="">
              <g data-mml-node="mo" data-semantic-type="operator" data-semantic-role="subtraction" data-semantic-id="0" data-semantic-parent="5" data-semantic-operator="prefixop,−" data-semantic-speech="">
                <use data-c="2212" xlink:href="#MJX-4-TEX-N-2212"/>
              </g>
              <g data-mml-node="mrow" data-semantic-type="infixop" data-semantic-role="implicit" data-semantic-id="4" data-semantic-children="1,2" data-semantic-content="3" data-semantic-parent="5" data-semantic-speech="" transform="translate(778,0)">
                <g data-mml-node="mn" data-semantic-type="number" data-semantic-role="float" data-semantic-font="normal" data-semantic-id="1" data-semantic-parent="4" data-semantic-speech="">
                  <use data-c="34" xlink:href="#MJX-4-TEX-N-34"/>
                  <use data-c="2E" xlink:href="#MJX-4-TEX-N-2E" transform="translate(500,0)"/>
                  <use data-c="37" xlink:href="#MJX-4-TEX-N-37" transform="translate(778,0)"/>
                  <use data-c="31" xlink:href="#MJX-4-TEX-N-31" transform="translate(1278,0)"/>
                  <use data-c="32" xlink:href="#MJX-4-TEX-N-32" transform="translate(1778,0)"/>
                  <use data-c="33" xlink:href="#MJX-4-TEX-N-33" transform="translate(2278,0)"/>
                  <use data-c="39" xlink:href="#MJX-4-TEX-N-39" transform="translate(2778,0)"/>
                </g>
                <g data-mml-node="mo" data-semantic-type="operator" data-semantic-role="multiplication" data-semantic-id="3" data-semantic-parent="4" data-semantic-added="true" data-semantic-operator="infixop,⁢" data-semantic-speech="" transform="translate(3278,0)">
                  <use data-c="2062" xlink:href="#MJX-4-TEX-N-2062"/>
                </g>
                <g data-mml-node="mi" data-semantic-type="identifier" data-semantic-role="greekletter" data-semantic-font="italic" data-semantic-id="2" data-semantic-parent="4" data-semantic-speech="" transform="translate(3278,0)">
                  <use data-c="1D70B" xlink:href="#MJX-4-TEX-I-1D70B"/>
                </g>
              </g>
            </g>
          </g>
        </svg>
      </g>
    </g>
    <g id="label-3" transform="translate(-100.6,266.0) translate(-41.9,-0.0)">
      <g id="g-4">
        <svg xmlns:xlink="http://www.w3.org/1999/xlink" style="vertical-align: -1.488px" width="83.728px" height="13.736px" role="img" focusable="false" viewBox="0 -677 4626 759" x="0.0" y="0.0">
          <defs>
            <path id="MJX-5-TEX-N-2212" d="M84 237T84 250T98 270H679Q694 262 694 250T679 230H98Q84 237 84 250Z"/>
            <path id="MJX-5-TEX-N-33" d="M127 463Q100 463 85 480T69 524Q69 579 117 622T233 665Q268 665 277 664Q351 652 390 611T430 522Q430 470 396 421T302 350L299 348Q299 347 308 345T337 336T375 315Q457 262 457 175Q457 96 395 37T238 -22Q158 -22 100 21T42 130Q42 158 60 175T105 193Q133 193 151 175T169 130Q169 119 166 110T159 94T148 82T136 74T126 70T118 67L114 66Q165 21 238 21Q293 21 321 74Q338 107 338 175V195Q338 290 274 322Q259 328 213 329L171 330L168 332Q166 335 166 348Q166 366 174 366Q202 366 232 371Q266 376 294 413T322 525V533Q322 590 287 612Q265 626 240 626Q208 626 181 615T143 592T132 580H135Q138 579 143 578T153 573T165 566T175 555T183 540T186 520Q186 498 172 481T127 463Z"/>
            <path id="MJX-5-TEX-N-2E" d="M78 60Q78 84 95 102T138 120Q162 120 180 104T199 61Q199 36 182 18T139 0T96 17T78 60Z"/>
            <path id="MJX-5-TEX-N-31" d="M213 578L200 573Q186 568 160 563T102 556H83V602H102Q149 604 189 617T245 641T273 663Q275 666 285 666Q294 666 302 660V361L303 61Q310 54 315 52T339 48T401 46H427V0H416Q395 3 257 3Q121 3 100 0H88V46H114Q136 46 152 46T177 47T193 50T201 52T207 57T213 61V578Z"/>
            <path id="MJX-5-TEX-N-34" d="M462 0Q444 3 333 3Q217 3 199 0H190V46H221Q241 46 248 46T265 48T279 53T286 61Q287 63 287 115V165H28V211L179 442Q332 674 334 675Q336 677 355 677H373L379 671V211H471V165H379V114Q379 73 379 66T385 54Q393 47 442 46H471V0H462ZM293 211V545L74 212L183 211H293Z"/>
            <path id="MJX-5-TEX-N-35" d="M164 157Q164 133 148 117T109 101H102Q148 22 224 22Q294 22 326 82Q345 115 345 210Q345 313 318 349Q292 382 260 382H254Q176 382 136 314Q132 307 129 306T114 304Q97 304 95 310Q93 314 93 485V614Q93 664 98 664Q100 666 102 666Q103 666 123 658T178 642T253 634Q324 634 389 662Q397 666 402 666Q410 666 410 648V635Q328 538 205 538Q174 538 149 544L139 546V374Q158 388 169 396T205 412T256 420Q337 420 393 355T449 201Q449 109 385 44T229 -22Q148 -22 99 32T50 154Q50 178 61 192T84 210T107 214Q132 214 148 197T164 157Z"/>
            <path id="MJX-5-TEX-N-39" d="M352 287Q304 211 232 211Q154 211 104 270T44 396Q42 412 42 436V444Q42 537 111 606Q171 666 243 666Q245 666 249 666T257 665H261Q273 665 286 663T323 651T370 619T413 560Q456 472 456 334Q456 194 396 97Q361 41 312 10T208 -22Q147 -22 108 7T68 93T121 149Q143 149 158 135T173 96Q173 78 164 65T148 49T135 44L131 43Q131 41 138 37T164 27T206 22H212Q272 22 313 86Q352 142 352 280V287ZM244 248Q292 248 321 297T351 430Q351 508 343 542Q341 552 337 562T323 588T293 615T246 625Q208 625 181 598Q160 576 154 546T147 441Q147 358 152 329T172 282Q197 248 244 248Z"/>
            <path id="MJX-5-TEX-N-2062" d=""/>
            <path id="MJX-5-TEX-I-1D70B" d="M132 -11Q98 -11 98 22V33L111 61Q186 219 220 334L228 358H196Q158 358 142 355T103 336Q92 329 81 318T62 297T53 285Q51 284 38 284Q19 284 19 294Q19 300 38 329T93 391T164 429Q171 431 389 431Q549 431 553 430Q573 423 573 402Q573 371 541 360Q535 358 472 358H408L405 341Q393 269 393 222Q393 170 402 129T421 65T431 37Q431 20 417 5T381 -10Q370 -10 363 -7T347 17T331 77Q330 86 330 121Q330 170 339 226T357 318T367 358H269L268 354Q268 351 249 275T206 114T175 17Q164 -11 132 -11Z"/>
          </defs>
          <g stroke="currentColor" fill="currentColor" stroke-width="0" transform="scale(1,-1)">
            <g data-mml-node="math" data-semantic-type="prefixop" data-semantic-role="negative" data-semantic-id="5" data-semantic-children="4" data-semantic-content="0" data-semantic-speech="">
              <g data-mml-node="mo" data-semantic-type="operator" data-semantic-role="subtraction" data-semantic-id="0" data-semantic-parent="5" data-semantic-operator="prefixop,−" data-semantic-speech="">
                <use data-c="2212" xlink:href="#MJX-5-TEX-N-2212"/>
              </g>
              <g data-mml-node="mrow" data-semantic-type="infixop" data-semantic-role="implicit" data-semantic-id="4" data-semantic-children="1,2" data-semantic-content="3" data-semantic-parent="5" data-semantic-speech="" transform="translate(778,0)">
                <g data-mml-node="mn" data-semantic-type="number" data-semantic-role="float" data-semantic-font="normal" data-semantic-id="1" data-semantic-parent="4" data-semantic-speech="">
                  <use data-c="33" xlink:href="#MJX-5-TEX-N-33"/>
                  <use data-c="2E" xlink:href="#MJX-5-TEX-N-2E" transform="translate(500,0)"/>
                  <use data-c="31" xlink:href="#MJX-5-TEX-N-31" transform="translate(778,0)"/>
                  <use data-c="34" xlink:href="#MJX-5-TEX-N-34" transform="translate(1278,0)"/>
                  <use data-c="31" xlink:href="#MJX-5-TEX-N-31" transform="translate(1778,0)"/>
                  <use data-c="35" xlink:href="#MJX-5-TEX-N-35" transform="translate(2278,0)"/>
                  <use data-c="39" xlink:href="#MJX-5-TEX-N-39" transform="translate(2778,0)"/>
                </g>
                <g data-mml-node="mo" data-semantic-type="operator" data-semantic-role="multiplication" data-semantic-id="3" data-semantic-parent="4" data-semantic-added="true" data-semantic-operator="infixop,⁢" data-semantic-speech="" transform="translate(3278,0)">
                  <use data-c="2062" xlink:href="#MJX-5-TEX-N-2062"/>
                </g>
                <g data-mml-node="mi" data-semantic-type="identifier" data-semantic-role="greekletter" data-semantic-font="italic" data-semantic-id="2" data-semantic-parent="4" data-semantic-speech="" transform="translate(3278,0)">
                  <use data-c="1D70B" xlink:href="#MJX-5-TEX-I-1D70B"/>
                </g>
              </g>
            </g>
          </g>
        </svg>
      </g>
    </g>
    <g id="label-4" transform="translate(89.7,266.0) translate(-37.3,-0.0)">
      <g id="g-5">
        <svg xmlns:xlink="http://www.w3.org/1999/xlink" style="vertical-align: -1.488px" width="74.680px" height="13.720px" role="img" focusable="false" viewBox="0 -676 4126 758" x="0.0" y="0.0">
          <defs>
            <path id="MJX-6-TEX-N-2212" d="M84 237T84 250T98 270H679Q694 262 694 250T679 230H98Q84 237 84 250Z"/>
            <path id="MJX-6-TEX-N-31" d="M213 578L200 573Q186 568 160 563T102 556H83V602H102Q149 604 189 617T245 641T273 663Q275 666 285 666Q294 666 302 660V361L303 61Q310 54 315 52T339 48T401 46H427V0H416Q395 3 257 3Q121 3 100 0H88V46H114Q136 46 152 46T177 47T193 50T201 52T207 57T213 61V578Z"/>
            <path id="MJX-6-TEX-N-2E" d="M78 60Q78 84 95 102T138 120Q162 120 180 104T199 61Q199 36 182 18T139 0T96 17T78 60Z"/>
            <path id="MJX-6-TEX-N-35" d="M164 157Q164 133 148 117T109 101H102Q148 22 224 22Q294 22 326 82Q345 115 345 210Q345 313 318 349Q292 382 260 382H254Q176 382 136 314Q132 307 129 306T114 304Q97 304 95 310Q93 314 93 485V614Q93 664 98 664Q100 666 102 666Q103 666 123 658T178 642T253 634Q324 634 389 662Q397 666 402 666Q410 666 410 648V635Q328 538 205 538Q174 538 149 544L139 546V374Q158 388 169 396T205 412T256 420Q337 420 393 355T449 201Q449 109 385 44T229 -22Q148 -22 99 32T50 154Q50 178 61 192T84 210T107 214Q132 214 148 197T164 157Z"/>
            <path id="MJX-6-TEX-N-37" d="M55 458Q56 460 72 567L88 674Q88 676 108 676H128V672Q128 662 143 655T195 646T364 644H485V605L417 512Q408 500 387 472T360 435T339 403T319 367T305 330T292 284T284 230T278 162T275 80Q275 66 275 52T274 28V19Q270 2 255 -10T221 -22Q210 -22 200 -19T179 0T168 40Q168 198 265 368Q285 400 349 489L395 552H302Q128 552 119 546Q113 543 108 522T98 479L95 458V455H55V458Z"/>
            <path id="MJX-6-TEX-N-30" d="M96 585Q152 666 249 666Q297 666 345 640T423 548Q460 465 460 320Q460 165 417 83Q397 41 362 16T301 -15T250 -22Q224 -22 198 -16T137 16T82 83Q39 165 39 320Q39 494 96 585ZM321 597Q291 629 250 629Q208 629 178 597Q153 571 145 525T137 333Q137 175 145 125T181 46Q209 16 250 16Q290 16 318 46Q347 76 354 130T362 333Q362 478 354 524T321 597Z"/>
            <path id="MJX-6-TEX-N-38" d="M70 417T70 494T124 618T248 666Q319 666 374 624T429 515Q429 485 418 459T392 417T361 389T335 371T324 363L338 354Q352 344 366 334T382 323Q457 264 457 174Q457 95 399 37T249 -22Q159 -22 101 29T43 155Q43 263 172 335L154 348Q133 361 127 368Q70 417 70 494ZM286 386L292 390Q298 394 301 396T311 403T323 413T334 425T345 438T355 454T364 471T369 491T371 513Q371 556 342 586T275 624Q268 625 242 625Q201 625 165 599T128 534Q128 511 141 492T167 463T217 431Q224 426 228 424L286 386ZM250 21Q308 21 350 55T392 137Q392 154 387 169T375 194T353 216T330 234T301 253T274 270Q260 279 244 289T218 306L210 311Q204 311 181 294T133 239T107 157Q107 98 150 60T250 21Z"/>
            <path id="MJX-6-TEX-N-2062" d=""/>
            <path id="MJX-6-TEX-I-1D70B" d="M132 -11Q98 -11 98 22V33L111 61Q186 219 220 334L228 358H196Q158 358 142 355T103 336Q92 329 81 318T62 297T53 285Q51 284 38 284Q19 284 19 294Q19 300 38 329T93 391T164 429Q171 431 389 431Q549 431 553 430Q573 423 573 402Q573 371 541 360Q535 358 472 358H408L405 341Q393 269 393 222Q393 170 402 129T421 65T431 37Q431 20 417 5T381 -10Q370 -10 363 -7T347 17T331 77Q330 86 330 121Q330 170 339 226T357 318T367 358H269L268 354Q268 351 249 275T206 114T175 17Q164 -11 132 -11Z"/>
          </defs>
          <g stroke="currentColor" fill="currentColor" stroke-width="0" transform="scale(1,-1)">
            <g data-mml-node="math" data-semantic-type="prefixop" data-semantic-role="negative" data-semantic-id="5" data-semantic-children="4" data-semantic-content="0" data-semantic-speech="">
              <g data-mml-node="mo" data-semantic-type="operator" data-semantic-role="subtraction" data-semantic-id="0" data-semantic-parent="5" data-semantic-operator="prefixop,−" data-semantic-speech="">
                <use data-c="2212" xlink:href="#MJX-6-TEX-N-2212"/>
              </g>
              <g data-mml-node="mrow" data-semantic-type="infixop" data-semantic-role="implicit" data-semantic-id="4" data-semantic-children="1,2" data-semantic-content="3" data-semantic-parent="5" data-semantic-speech="" transform="translate(778,0)">
                <g data-mml-node="mn" data-semantic-type="number" data-semantic-role="float" data-semantic-font="normal" data-semantic-id="1" data-semantic-parent="4" data-semantic-speech="">
                  <use data-c="31" xlink:href="#MJX-6-TEX-N-31"/>
                  <use data-c="2E" xlink:href="#MJX-6-TEX-N-2E" transform="translate(500,0)"/>
                  <use data-c="35" xlink:href="#MJX-6-TEX-N-35" transform="translate(778,0)"/>
                  <use data-c="37" xlink:href="#MJX-6-TEX-N-37" transform="translate(1278,0)"/>
                  <use data-c="30" xlink:href="#MJX-6-TEX-N-30" transform="translate(1778,0)"/>
                  <use data-c="38" xlink:href="#MJX-6-TEX-N-38" transform="translate(2278,0)"/>
                </g>
                <g data-mml-node="mo" data-semantic-type="operator" data-semantic-role="multiplication" data-semantic-id="3" data-semantic-parent="4" data-semantic-added="true" data-semantic-operator="infixop,⁢" data-semantic-speech="" transform="translate(2778,0)">
                  <use data-c="2062" xlink:href="#MJX-6-TEX-N-2062"/>
                </g>
                <g data-mml-node="mi" data-semantic-type="identifier" data-semantic-role="greekletter" data-semantic-font="italic" data-semantic-id="2" data-semantic-parent="4" data-semantic-speech="" transform="translate(2778,0)">
                  <use data-c="1D70B" xlink:href="#MJX-6-TEX-I-1D70B"/>
                </g>
              </g>
            </g>
          </g>
        </svg>
      </g>
    </g>
    <g id="label-5" transform="translate(470.3,266.0) translate(-30.3,-0.0)">
      <g id="g-6">
        <svg xmlns:xlink="http://www.w3.org/1999/xlink" style="vertical-align: -0.400px" width="60.600px" height="12.632px" role="img" focusable="false" viewBox="0 -676 3348 698" x="0.0" y="0.0">
          <defs>
            <path id="MJX-7-TEX-N-31" d="M213 578L200 573Q186 568 160 563T102 556H83V602H102Q149 604 189 617T245 641T273 663Q275 666 285 666Q294 666 302 660V361L303 61Q310 54 315 52T339 48T401 46H427V0H416Q395 3 257 3Q121 3 100 0H88V46H114Q136 46 152 46T177 47T193 50T201 52T207 57T213 61V578Z"/>
            <path id="MJX-7-TEX-N-2E" d="M78 60Q78 84 95 102T138 120Q162 120 180 104T199 61Q199 36 182 18T139 0T96 17T78 60Z"/>
            <path id="MJX-7-TEX-N-35" d="M164 157Q164 133 148 117T109 101H102Q148 22 224 22Q294 22 326 82Q345 115 345 210Q345 313 318 349Q292 382 260 382H254Q176 382 136 314Q132 307 129 306T114 304Q97 304 95 310Q93 314 93 485V614Q93 664 98 664Q100 666 102 666Q103 666 123 658T178 642T253 634Q324 634 389 662Q397 666 402 666Q410 666 410 648V635Q328 538 205 538Q174 538 149 544L139 546V374Q158 388 169 396T205 412T256 420Q337 420 393 355T449 201Q449 109 385 44T229 -22Q148 -22 99 32T50 154Q50 178 61 192T84 210T107 214Q132 214 148 197T164 157Z"/>
            <path id="MJX-7-TEX-N-37" d="M55 458Q56 460 72 567L88 674Q88 676 108 676H128V672Q128 662 143 655T195 646T364 644H485V605L417 512Q408 500 387 472T360 435T339 403T319 367T305 330T292 284T284 230T278 162T275 80Q275 66 275 52T274 28V19Q270 2 255 -10T221 -22Q210 -22 200 -19T179 0T168 40Q168 198 265 368Q285 400 349 489L395 552H302Q128 552 119 546Q113 543 108 522T98 479L95 458V455H55V458Z"/>
            <path id="MJX-7-TEX-N-30" d="M96 585Q152 666 249 666Q297 666 345 640T423 548Q460 465 460 320Q460 165 417 83Q397 41 362 16T301 -15T250 -22Q224 -22 198 -16T137 16T82 83Q39 165 39 320Q39 494 96 585ZM321 597Q291 629 250 629Q208 629 178 597Q153 571 145 525T137 333Q137 175 145 125T181 46Q209 16 250 16Q290 16 318 46Q347 76 354 130T362 333Q362 478 354 524T321 597Z"/>
            <path id="MJX-7-TEX-N-38" d="M70 417T70 494T124 618T248 666Q319 666 374 624T429 515Q429 485 418 459T392 417T361 389T335 371T324 363L338 354Q352 344 366 334T382 323Q457 264 457 174Q457 95 399 37T249 -22Q159 -22 101 29T43 155Q43 263 172 335L154 348Q133 361 127 368Q70 417 70 494ZM286 386L292 390Q298 394 301 396T311 403T323 413T334 425T345 438T355 454T364 471T369 491T371 513Q371 556 342 586T275 624Q268 625 242 625Q201 625 165 599T128 534Q128 511 141 492T167 463T217 431Q224 426 228 424L286 386ZM250 21Q308 21 350 55T392 137Q392 154 387 169T375 194T353 216T330 234T301 253T274 270Q260 279 244 289T218 306L210 311Q204 311 181 294T133 239T107 157Q107 98 150 60T250 21Z"/>
            <path id="MJX-7-TEX-N-2062" d=""/>
            <path id="MJX-7-TEX-I-1D70B" d="M132 -11Q98 -11 98 22V33L111 61Q186 219 220 334L228 358H196Q158 358 142 355T103 336Q92 329 81 318T62 297T53 285Q51 284 38 284Q19 284 19 294Q19 300 38 329T93 391T164 429Q171 431 389 431Q549 431 553 430Q573 423 573 402Q573 371 541 360Q535 358 472 358H408L405 341Q393 269 393 222Q393 170 402 129T421 65T431 37Q431 20 417 5T381 -10Q370 -10 363 -7T347 17T331 77Q330 86 330 121Q330 170 339 226T357 318T367 358H269L268 354Q268 351 249 275T206 114T175 17Q164 -11 132 -11Z"/>
          </defs>
          <g stroke="currentColor" fill="currentColor" stroke-width="0" transform="scale(1,-1)">
            <g data-mml-node="math" data-semantic-type="infixop" data-semantic-role="implicit" data-semantic-id="3" data-semantic-children="0,1" data-semantic-content="2" data-semantic-speech="">
              <g data-mml-node="mn" data-semantic-type="number" data-semantic-role="float" data-semantic-font="normal" data-semantic-id="0" data-semantic-parent="3" data-semantic-speech="">
                <use data-c="31" xlink:href="#MJX-7-TEX-N-31"/>
                <use data-c="2E" xlink:href="#MJX-7-TEX-N-2E" transform="translate(500,0)"/>
                <use data-c="35" xlink:href="#MJX-7-TEX-N-35" transform="translate(778,0)"/>
                <use data-c="37" xlink:href="#MJX-7-TEX-N-37" transform="translate(1278,0)"/>
                <use data-c="30" xlink:href="#MJX-7-TEX-N-30" transform="translate(1778,0)"/>
                <use data-c="38" xlink:href="#MJX-7-TEX-N-38" transform="translate(2278,0)"/>
              </g>
              <g data-mml-node="mo" data-semantic-type="operator" data-semantic-role="multiplication" data-semantic-id="2" data-semantic-parent="3" data-semantic-added="true" data-semantic-operator="infixop,⁢" data-semantic-speech="" transform="translate(2778,0)">
                <use data-c="2062" xlink:href="#MJX-7-TEX-N-2062"/>
              </g>
              <g data-mml-node="mi" data-semantic-type="identifier" data-semantic-role="greekletter" data-semantic-font="italic" data-semantic-id="1" data-semantic-parent="3" data-semantic-speech="" transform="translate(2778,0)">
                <use data-c="1D70B" xlink:href="#MJX-7-TEX-I-1D70B"/>
              </g>
            </g>
          </g>
        </svg>
      </g>
    </g>
    <g id="label-6" transform="translate(660.6,266.0) translate(-34.8,-0.0)">
      <g id="g-7">
        <svg xmlns:xlink="http://www.w3.org/1999/xlink" style="vertical-align: -0.400px" width="69.648px" height="12.648px" role="img" focusable="false" viewBox="0 -677 3848 699" x="0.0" y="0.0">
          <defs>
            <path id="MJX-8-TEX-N-33" d="M127 463Q100 463 85 480T69 524Q69 579 117 622T233 665Q268 665 277 664Q351 652 390 611T430 522Q430 470 396 421T302 350L299 348Q299 347 308 345T337 336T375 315Q457 262 457 175Q457 96 395 37T238 -22Q158 -22 100 21T42 130Q42 158 60 175T105 193Q133 193 151 175T169 130Q169 119 166 110T159 94T148 82T136 74T126 70T118 67L114 66Q165 21 238 21Q293 21 321 74Q338 107 338 175V195Q338 290 274 322Q259 328 213 329L171 330L168 332Q166 335 166 348Q166 366 174 366Q202 366 232 371Q266 376 294 413T322 525V533Q322 590 287 612Q265 626 240 626Q208 626 181 615T143 592T132 580H135Q138 579 143 578T153 573T165 566T175 555T183 540T186 520Q186 498 172 481T127 463Z"/>
            <path id="MJX-8-TEX-N-2E" d="M78 60Q78 84 95 102T138 120Q162 120 180 104T199 61Q199 36 182 18T139 0T96 17T78 60Z"/>
            <path id="MJX-8-TEX-N-31" d="M213 578L200 573Q186 568 160 563T102 556H83V602H102Q149 604 189 617T245 641T273 663Q275 666 285 666Q294 666 302 660V361L303 61Q310 54 315 52T339 48T401 46H427V0H416Q395 3 257 3Q121 3 100 0H88V46H114Q136 46 152 46T177 47T193 50T201 52T207 57T213 61V578Z"/>
            <path id="MJX-8-TEX-N-34" d="M462 0Q444 3 333 3Q217 3 199 0H190V46H221Q241 46 248 46T265 48T279 53T286 61Q287 63 287 115V165H28V211L179 442Q332 674 334 675Q336 677 355 677H373L379 671V211H471V165H379V114Q379 73 379 66T385 54Q393 47 442 46H471V0H462ZM293 211V545L74 212L183 211H293Z"/>
            <path id="MJX-8-TEX-N-35" d="M164 157Q164 133 148 117T109 101H102Q148 22 224 22Q294 22 326 82Q345 115 345 210Q345 313 318 349Q292 382 260 382H254Q176 382 136 314Q132 307 129 306T114 304Q97 304 95 310Q93 314 93 485V614Q93 664 98 664Q100 666 102 666Q103 666 123 658T178 642T253 634Q324 634 389 662Q397 666 402 666Q410 666 410 648V635Q328 538 205 538Q174 538 149 544L139 546V374Q158 388 169 396T205 412T256 420Q337 420 393 355T449 201Q449 109 385 44T229 -22Q148 -22 99 32T50 154Q50 178 61 192T84 210T107 214Q132 214 148 197T164 157Z"/>
            <path id="MJX-8-TEX-N-39" d="M352 287Q304 211 232 211Q154 211 104 270T44 396Q42 412 42 436V444Q42 537 111 606Q171 666 243 666Q245 666 249 666T257 665H261Q273 665 286 663T323 651T370 619T413 560Q456 472 456 334Q456 194 396 97Q361 41 312 10T208 -22Q147 -22 108 7T68 93T121 149Q143 149 158 135T173 96Q173 78 164 65T148 49T135 44L131 43Q131 41 138 37T164 27T206 22H212Q272 22 313 86Q352 142 352 280V287ZM244 248Q292 248 321 297T351 430Q351 508 343 542Q341 552 337 562T323 588T293 615T246 625Q208 625 181 598Q160 576 154 546T147 441Q147 358 152 329T172 282Q197 248 244 248Z"/>
            <path id="MJX-8-TEX-N-2062" d=""/>
            <path id="MJX-8-TEX-I-1D70B" d="M132 -11Q98 -11 98 22V33L111 61Q186 219 220 334L228 358H196Q158 358 142 355T103 336Q92 329 81 318T62 297T53 285Q51 284 38 284Q19 284 19 294Q19 300 38 329T93 391T164 429Q171 431 389 431Q549 431 553 430Q573 423 573 402Q573 371 541 360Q535 358 472 358H408L405 341Q393 269 393 222Q393 170 402 129T421 65T431 37Q431 20 417 5T381 -10Q370 -10 363 -7T347 17T331 77Q330 86 330 121Q330 170 339 226T357 318T367 358H269L268 354Q268 351 249 275T206 114T175 17Q164 -11 132 -11Z"/>
          </defs>
          <g stroke="currentColor" fill="currentColor" stroke-width="0" transform="scale(1,-1)">
            <g data-mml-node="math" data-semantic-type="infixop" data-semantic-role="implicit" data-semantic-id="3" data-semantic-children="0,1" data-semantic-content="2" data-semantic-speech="">
              <g data-mml-node="mn" data-semantic-type="number" data-semantic-role="float" data-semantic-font="normal" data-semantic-id="0" data-semantic-parent="3" data-semantic-speech="">
                <use data-c="33" xlink:href="#MJX-8-TEX-N-33"/>
                <use data-c="2E" xlink:href="#MJX-8-TEX-N-2E" transform="translate(500,0)"/>
                <use data-c="31" xlink:href="#MJX-8-TEX-N-31" transform="translate(778,0)"/>
                <use data-c="34" xlink:href="#MJX-8-TEX-N-34" transform="translate(1278,0)"/>
                <use data-c="31" xlink:href="#MJX-8-TEX-N-31" transform="translate(1778,0)"/>
                <use data-c="35" xlink:href="#MJX-8-TEX-N-35" transform="translate(2278,0)"/>
                <use data-c="39" xlink:href="#MJX-8-TEX-N-39" transform="translate(2778,0)"/>
              </g>
              <g data-mml-node="mo" data-semantic-type="operator" data-semantic-role="multiplication" data-semantic-id="2" data-semantic-parent="3" data-semantic-added="true" data-semantic-operator="infixop,⁢" data-semantic-speech="" transform="translate(3278,0)">
                <use data-c="2062" xlink:href="#MJX-8-TEX-N-2062"/>
              </g>
              <g data-mml-node="mi" data-semantic-type="identifier" data-semantic-role="greekletter" data-semantic-font="italic" data-semantic-id="1" data-semantic-parent="3" data-semantic-speech="" transform="translate(3278,0)">
                <use data-c="1D70B" xlink:href="#MJX-8-TEX-I-1D70B"/>
              </g>
            </g>
          </g>
        </svg>
      </g>
    </g>
    <g id="label-7" transform="translate(850.9,266.0) translate(-34.8,-0.0)">
      <g id="g-8">
        <svg xmlns:xlink="http://www.w3.org/1999/xlink" style="vertical-align: -0.400px" width="69.648px" height="12.648px" role="img" focusable="false" viewBox="0 -677 3848 699" x="0.0" y="0.0">
          <defs>
            <path id="MJX-9-TEX-N-34" d="M462 0Q444 3 333 3Q217 3 199 0H190V46H221Q241 46 248 46T265 48T279 53T286 61Q287 63 287 115V165H28V211L179 442Q332 674 334 675Q336 677 355 677H373L379 671V211H471V165H379V114Q379 73 379 66T385 54Q393 47 442 46H471V0H462ZM293 211V545L74 212L183 211H293Z"/>
            <path id="MJX-9-TEX-N-2E" d="M78 60Q78 84 95 102T138 120Q162 120 180 104T199 61Q199 36 182 18T139 0T96 17T78 60Z"/>
            <path id="MJX-9-TEX-N-37" d="M55 458Q56 460 72 567L88 674Q88 676 108 676H128V672Q128 662 143 655T195 646T364 644H485V605L417 512Q408 500 387 472T360 435T339 403T319 367T305 330T292 284T284 230T278 162T275 80Q275 66 275 52T274 28V19Q270 2 255 -10T221 -22Q210 -22 200 -19T179 0T168 40Q168 198 265 368Q285 400 349 489L395 552H302Q128 552 119 546Q113 543 108 522T98 479L95 458V455H55V458Z"/>
            <path id="MJX-9-TEX-N-31" d="M213 578L200 573Q186 568 160 563T102 556H83V602H102Q149 604 189 617T245 641T273 663Q275 666 285 666Q294 666 302 660V361L303 61Q310 54 315 52T339 48T401 46H427V0H416Q395 3 257 3Q121 3 100 0H88V46H114Q136 46 152 46T177 47T193 50T201 52T207 57T213 61V578Z"/>
            <path id="MJX-9-TEX-N-32" d="M109 429Q82 429 66 447T50 491Q50 562 103 614T235 666Q326 666 387 610T449 465Q449 422 429 383T381 315T301 241Q265 210 201 149L142 93L218 92Q375 92 385 97Q392 99 409 186V189H449V186Q448 183 436 95T421 3V0H50V19V31Q50 38 56 46T86 81Q115 113 136 137Q145 147 170 174T204 211T233 244T261 278T284 308T305 340T320 369T333 401T340 431T343 464Q343 527 309 573T212 619Q179 619 154 602T119 569T109 550Q109 549 114 549Q132 549 151 535T170 489Q170 464 154 447T109 429Z"/>
            <path id="MJX-9-TEX-N-33" d="M127 463Q100 463 85 480T69 524Q69 579 117 622T233 665Q268 665 277 664Q351 652 390 611T430 522Q430 470 396 421T302 350L299 348Q299 347 308 345T337 336T375 315Q457 262 457 175Q457 96 395 37T238 -22Q158 -22 100 21T42 130Q42 158 60 175T105 193Q133 193 151 175T169 130Q169 119 166 110T159 94T148 82T136 74T126 70T118 67L114 66Q165 21 238 21Q293 21 321 74Q338 107 338 175V195Q338 290 274 322Q259 328 213 329L171 330L168 332Q166 335 166 348Q166 366 174 366Q202 366 232 371Q266 376 294 413T322 525V533Q322 590 287 612Q265 626 240 626Q208 626 181 615T143 592T132 580H135Q138 579 143 578T153 573T165 566T175 555T183 540T186 520Q186 498 172 481T127 463Z"/>
            <path id="MJX-9-TEX-N-39" d="M352 287Q304 211 232 211Q154 211 104 270T44 396Q42 412 42 436V444Q42 537 111 606Q171 666 243 666Q245 666 249 666T257 665H261Q273 665 286 663T323 651T370 619T413 560Q456 472 456 334Q456 194 396 97Q361 41 312 10T208 -22Q147 -22 108 7T68 93T121 149Q143 149 158 135T173 96Q173 78 164 65T148 49T135 44L131 43Q131 41 138 37T164 27T206 22H212Q272 22 313 86Q352 142 352 280V287ZM244 248Q292 248 321 297T351 430Q351 508 343 542Q341 552 337 562T323 588T293 615T246 625Q208 625 181 598Q160 576 154 546T147 441Q147 358 152 329T172 282Q197 248 244 248Z"/>
            <path id="MJX-9-TEX-N-2062" d=""/>
            <path id="MJX-9-TEX-I-1D70B" d="M132 -11Q98 -11 98 22V33L111 61Q186 219 220 334L228 358H196Q158 358 142 355T103 336Q92 329 81 318T62 297T53 285Q51 284 38 284Q19 284 19 294Q19 300 38 329T93 391T164 429Q171 431 389 431Q549 431 553 430Q573 423 573 402Q573 371 541 360Q535 358 472 358H408L405 341Q393 269 393 222Q393 170 402 129T421 65T431 37Q431 20 417 5T381 -10Q370 -10 363 -7T347 17T331 77Q330 86 330 121Q330 170 339 226T357 318T367 358H269L268 354Q268 351 249 275T206 114T175 17Q164 -11 132 -11Z"/>
          </defs>
          <g stroke="currentColor" fill="currentColor" stroke-width="0" transform="scale(1,-1)">
            <g data-mml-node="math" data-semantic-type="infixop" data-semantic-role="implicit" data-semantic-id="3" data-semantic-children="0,1" data-semantic-content="2" data-semantic-speech="">
              <g data-mml-node="mn" data-semantic-type="number" data-semantic-role="float" data-semantic-font="normal" data-semantic-id="0" data-semantic-parent="3" data-semantic-speech="">
                <use data-c="34" xlink:href="#MJX-9-TEX-N-34"/>
                <use data-c="2E" xlink:href="#MJX-9-TEX-N-2E" transform="translate(500,0)"/>
                <use data-c="37" xlink:href="#MJX-9-TEX-N-37" transform="translate(778,0)"/>
                <use data-c="31" xlink:href="#MJX-9-TEX-N-31" transform="translate(1278,0)"/>
                <use data-c="32" xlink:href="#MJX-9-TEX-N-32" transform="translate(1778,0)"/>
                <use data-c="33" xlink:href="#MJX-9-TEX-N-33" transform="translate(2278,0)"/>
                <use data-c="39" xlink:href="#MJX-9-TEX-N-39" transform="translate(2778,0)"/>
              </g>
              <g data-mml-node="mo" data-semantic-type="operator" data-semantic-role="multiplication" data-semantic-id="2" data-semantic-parent="3" data-semantic-added="true" data-semantic-operator="infixop,⁢" data-semantic-speech="" transform="translate(3278,0)">
                <use data-c="2062" xlink:href="#MJX-9-TEX-N-2062"/>
              </g>
              <g data-mml-node="mi" data-semantic-type="identifier" data-semantic-role="greekletter" data-semantic-font="italic" data-semantic-id="1" data-semantic-parent="3" data-semantic-speech="" transform="translate(3278,0)">
                <use data-c="1D70B" xlink:href="#MJX-9-TEX-I-1D70B"/>
              </g>
            </g>
          </g>
        </svg>
      </g>
    </g>
    <g id="label-8" transform="translate(1041.2,266.0) translate(-34.8,-0.0)">
      <g id="g-9">
        <svg xmlns:xlink="http://www.w3.org/1999/xlink" style="vertical-align: -0.400px" width="69.648px" height="12.456px" role="img" focusable="false" viewBox="0 -666 3848 688" x="0.0" y="0.0">
          <defs>
            <path id="MJX-10-TEX-N-36" d="M42 313Q42 476 123 571T303 666Q372 666 402 630T432 550Q432 525 418 510T379 495Q356 495 341 509T326 548Q326 592 373 601Q351 623 311 626Q240 626 194 566Q147 500 147 364L148 360Q153 366 156 373Q197 433 263 433H267Q313 433 348 414Q372 400 396 374T435 317Q456 268 456 210V192Q456 169 451 149Q440 90 387 34T253 -22Q225 -22 199 -14T143 16T92 75T56 172T42 313ZM257 397Q227 397 205 380T171 335T154 278T148 216Q148 133 160 97T198 39Q222 21 251 21Q302 21 329 59Q342 77 347 104T352 209Q352 289 347 316T329 361Q302 397 257 397Z"/>
            <path id="MJX-10-TEX-N-2E" d="M78 60Q78 84 95 102T138 120Q162 120 180 104T199 61Q199 36 182 18T139 0T96 17T78 60Z"/>
            <path id="MJX-10-TEX-N-32" d="M109 429Q82 429 66 447T50 491Q50 562 103 614T235 666Q326 666 387 610T449 465Q449 422 429 383T381 315T301 241Q265 210 201 149L142 93L218 92Q375 92 385 97Q392 99 409 186V189H449V186Q448 183 436 95T421 3V0H50V19V31Q50 38 56 46T86 81Q115 113 136 137Q145 147 170 174T204 211T233 244T261 278T284 308T305 340T320 369T333 401T340 431T343 464Q343 527 309 573T212 619Q179 619 154 602T119 569T109 550Q109 549 114 549Q132 549 151 535T170 489Q170 464 154 447T109 429Z"/>
            <path id="MJX-10-TEX-N-38" d="M70 417T70 494T124 618T248 666Q319 666 374 624T429 515Q429 485 418 459T392 417T361 389T335 371T324 363L338 354Q352 344 366 334T382 323Q457 264 457 174Q457 95 399 37T249 -22Q159 -22 101 29T43 155Q43 263 172 335L154 348Q133 361 127 368Q70 417 70 494ZM286 386L292 390Q298 394 301 396T311 403T323 413T334 425T345 438T355 454T364 471T369 491T371 513Q371 556 342 586T275 624Q268 625 242 625Q201 625 165 599T128 534Q128 511 141 492T167 463T217 431Q224 426 228 424L286 386ZM250 21Q308 21 350 55T392 137Q392 154 387 169T375 194T353 216T330 234T301 253T274 270Q260 279 244 289T218 306L210 311Q204 311 181 294T133 239T107 157Q107 98 150 60T250 21Z"/>
            <path id="MJX-10-TEX-N-33" d="M127 463Q100 463 85 480T69 524Q69 579 117 622T233 665Q268 665 277 664Q351 652 390 611T430 522Q430 470 396 421T302 350L299 348Q299 347 308 345T337 336T375 315Q457 262 457 175Q457 96 395 37T238 -22Q158 -22 100 21T42 130Q42 158 60 175T105 193Q133 193 151 175T169 130Q169 119 166 110T159 94T148 82T136 74T126 70T118 67L114 66Q165 21 238 21Q293 21 321 74Q338 107 338 175V195Q338 290 274 322Q259 328 213 329L171 330L168 332Q166 335 166 348Q166 366 174 366Q202 366 232 371Q266 376 294 413T322 525V533Q322 590 287 612Q265 626 240 626Q208 626 181 615T143 592T132 580H135Q138 579 143 578T153 573T165 566T175 555T183 540T186 520Q186 498 172 481T127 463Z"/>
            <path id="MJX-10-TEX-N-31" d="M213 578L200 573Q186 568 160 563T102 556H83V602H102Q149 604 189 617T245 641T273 663Q275 666 285 666Q294 666 302 660V361L303 61Q310 54 315 52T339 48T401 46H427V0H416Q395 3 257 3Q121 3 100 0H88V46H114Q136 46 152 46T177 47T193 50T201 52T207 57T213 61V578Z"/>
            <path id="MJX-10-TEX-N-39" d="M352 287Q304 211 232 211Q154 211 104 270T44 396Q42 412 42 436V444Q42 537 111 606Q171 666 243 666Q245 666 249 666T257 665H261Q273 665 286 663T323 651T370 619T413 560Q456 472 456 334Q456 194 396 97Q361 41 312 10T208 -22Q147 -22 108 7T68 93T121 149Q143 149 158 135T173 96Q173 78 164 65T148 49T135 44L131 43Q131 41 138 37T164 27T206 22H212Q272 22 313 86Q352 142 352 280V287ZM244 248Q292 248 321 297T351 430Q351 508 343 542Q341 552 337 562T323 588T293 615T246 625Q208 625 181 598Q160 576 154 546T147 441Q147 358 152 329T172 282Q197 248 244 248Z"/>
            <path id="MJX-10-TEX-N-2062" d=""/>
            <path id="MJX-10-TEX-I-1D70B" d="M132 -11Q98 -11 98 22V33L111 61Q186 219 220 334L228 358H196Q158 358 142 355T103 336Q92 329 81 318T62 297T53 285Q51 284 38 284Q19 284 19 294Q19 300 38 329T93 391T164 429Q171 431 389 431Q549 431 553 430Q573 423 573 402Q573 371 541 360Q535 358 472 358H408L405 341Q393 269 393 222Q393 170 402 129T421 65T431 37Q431 20 417 5T381 -10Q370 -10 363 -7T347 17T331 77Q330 86 330 121Q330 170 339 226T357 318T367 358H269L268 354Q268 351 249 275T206 114T175 17Q164 -11 132 -11Z"/>
          </defs>
          <g stroke="currentColor" fill="currentColor" stroke-width="0" transform="scale(1,-1)">
            <g data-mml-node="math" data-semantic-type="infixop" data-semantic-role="implicit" data-semantic-id="3" data-semantic-children="0,1" data-semantic-content="2" data-semantic-speech="">
              <g data-mml-node="mn" data-semantic-type="number" data-semantic-role="float" data-semantic-font="normal" data-semantic-id="0" data-semantic-parent="3" data-semantic-speech="">
                <use data-c="36" xlink:href="#MJX-10-TEX-N-36"/>
                <use data-c="2E" xlink:href="#MJX-10-TEX-N-2E" transform="translate(500,0)"/>
                <use data-c="32" xlink:href="#MJX-10-TEX-N-32" transform="translate(778,0)"/>
                <use data-c="38" xlink:href="#MJX-10-TEX-N-38" transform="translate(1278,0)"/>
                <use data-c="33" xlink:href="#MJX-10-TEX-N-33" transform="translate(1778,0)"/>
                <use data-c="31" xlink:href="#MJX-10-TEX-N-31" transform="translate(2278,0)"/>
                <use data-c="39" xlink:href="#MJX-10-TEX-N-39" transform="translate(2778,0)"/>
              </g>
              <g data-mml-node="mo" data-semantic-type="operator" data-semantic-role="multiplication" data-semantic-id="2" data-semantic-parent="3" data-semantic-added="true" data-semantic-operator="infixop,⁢" data-semantic-speech="" transform="translate(3278,0)">
                <use data-c="2062" xlink:href="#MJX-10-TEX-N-2062"/>
              </g>
              <g data-mml-node="mi" data-semantic-type="identifier" data-semantic-role="greekletter" data-semantic-font="italic" data-semantic-id="1" data-semantic-parent="3" data-semantic-speech="" transform="translate(3278,0)">
                <use data-c="1D70B" xlink:href="#MJX-10-TEX-I-1D70B"/>
              </g>
            </g>
          </g>
        </svg>
      </g>
    </g>
    <g id="label-9" transform="translate(269.0,497.3) translate(-33.4,-6.8)">
      <g id="g-10">
        <svg xmlns:xlink="http://www.w3.org/1999/xlink" style="vertical-align: -1.488px" width="33.448px" height="13.536px" role="img" focusable="false" viewBox="0 -666 1848 748" x="0.0" y="0.0">
          <defs>
            <path id="MJX-11-TEX-N-2212" d="M84 237T84 250T98 270H679Q694 262 694 250T679 230H98Q84 237 84 250Z"/>
            <path id="MJX-11-TEX-N-32" d="M109 429Q82 429 66 447T50 491Q50 562 103 614T235 666Q326 666 387 610T449 465Q449 422 429 383T381 315T301 241Q265 210 201 149L142 93L218 92Q375 92 385 97Q392 99 409 186V189H449V186Q448 183 436 95T421 3V0H50V19V31Q50 38 56 46T86 81Q115 113 136 137Q145 147 170 174T204 211T233 244T261 278T284 308T305 340T320 369T333 401T340 431T343 464Q343 527 309 573T212 619Q179 619 154 602T119 569T109 550Q109 549 114 549Q132 549 151 535T170 489Q170 464 154 447T109 429Z"/>
            <path id="MJX-11-TEX-N-2062" d=""/>
            <path id="MJX-11-TEX-I-1D70B" d="M132 -11Q98 -11 98 22V33L111 61Q186 219 220 334L228 358H196Q158 358 142 355T103 336Q92 329 81 318T62 297T53 285Q51 284 38 284Q19 284 19 294Q19 300 38 329T93 391T164 429Q171 431 389 431Q549 431 553 430Q573 423 573 402Q573 371 541 360Q535 358 472 358H408L405 341Q393 269 393 222Q393 170 402 129T421 65T431 37Q431 20 417 5T381 -10Q370 -10 363 -7T347 17T331 77Q330 86 330 121Q330 170 339 226T357 318T367 358H269L268 354Q268 351 249 275T206 114T175 17Q164 -11 132 -11Z"/>
          </defs>
          <g stroke="currentColor" fill="currentColor" stroke-width="0" transform="scale(1,-1)">
            <g data-mml-node="math" data-semantic-type="prefixop" data-semantic-role="negative" data-semantic-id="5" data-semantic-children="4" data-semantic-content="0" data-semantic-speech="">
              <g data-mml-node="mo" data-semantic-type="operator" data-semantic-role="subtraction" data-semantic-id="0" data-semantic-parent="5" data-semantic-operator="prefixop,−" data-semantic-speech="">
                <use data-c="2212" xlink:href="#MJX-11-TEX-N-2212"/>
              </g>
              <g data-mml-node="mrow" data-semantic-type="infixop" data-semantic-role="implicit" data-semantic-id="4" data-semantic-children="1,2" data-semantic-content="3" data-semantic-parent="5" data-semantic-speech="" transform="translate(778,0)">
                <g data-mml-node="mn" data-semantic-type="number" data-semantic-role="integer" data-semantic-font="normal" data-semantic-id="1" data-semantic-parent="4" data-semantic-speech="">
                  <use data-c="32" xlink:href="#MJX-11-TEX-N-32"/>
                </g>
                <g data-mml-node="mo" data-semantic-type="operator" data-semantic-role="multiplication" data-semantic-id="3" data-semantic-parent="4" data-semantic-added="true" data-semantic-operator="infixop,⁢" data-semantic-speech="" transform="translate(500,0)">
                  <use data-c="2062" xlink:href="#MJX-11-TEX-N-2062"/>
                </g>
                <g data-mml-node="mi" data-semantic-type="identifier" data-semantic-role="greekletter" data-semantic-font="italic" data-semantic-id="2" data-semantic-parent="4" data-semantic-speech="" transform="translate(500,0)">
                  <use data-c="1D70B" xlink:href="#MJX-11-TEX-I-1D70B"/>
                </g>
              </g>
            </g>
          </g>
        </svg>
      </g>
    </g>
    <g id="label-10" transform="translate(269.0,376.1) translate(-24.4,-6.0)">
      <g id="g-11">
        <svg xmlns:xlink="http://www.w3.org/1999/xlink" style="vertical-align: -1.488px" width="24.400px" height="12.040px" role="img" focusable="false" viewBox="0 -583 1348 665" x="0.0" y="0.0">
          <defs>
            <path id="MJX-12-TEX-N-2212" d="M84 237T84 250T98 270H679Q694 262 694 250T679 230H98Q84 237 84 250Z"/>
            <path id="MJX-12-TEX-I-1D70B" d="M132 -11Q98 -11 98 22V33L111 61Q186 219 220 334L228 358H196Q158 358 142 355T103 336Q92 329 81 318T62 297T53 285Q51 284 38 284Q19 284 19 294Q19 300 38 329T93 391T164 429Q171 431 389 431Q549 431 553 430Q573 423 573 402Q573 371 541 360Q535 358 472 358H408L405 341Q393 269 393 222Q393 170 402 129T421 65T431 37Q431 20 417 5T381 -10Q370 -10 363 -7T347 17T331 77Q330 86 330 121Q330 170 339 226T357 318T367 358H269L268 354Q268 351 249 275T206 114T175 17Q164 -11 132 -11Z"/>
          </defs>
          <g stroke="currentColor" fill="currentColor" stroke-width="0" transform="scale(1,-1)">
            <g data-mml-node="math" data-semantic-type="prefixop" data-semantic-role="negative" data-semantic-id="2" data-semantic-children="1" data-semantic-content="0" data-semantic-speech="">
              <g data-mml-node="mo" data-semantic-type="operator" data-semantic-role="subtraction" data-semantic-id="0" data-semantic-parent="2" data-semantic-operator="prefixop,−" data-semantic-speech="">
                <use data-c="2212" xlink:href="#MJX-12-TEX-N-2212"/>
              </g>
              <g data-mml-node="mi" data-semantic-type="identifier" data-semantic-role="greekletter" data-semantic-font="italic" data-semantic-id="1" data-semantic-parent="2" data-semantic-speech="" transform="translate(778,0)">
                <use data-c="1D70B" xlink:href="#MJX-12-TEX-I-1D70B"/>
              </g>
            </g>
          </g>
        </svg>
      </g>
    </g>
    <g id="label-11" transform="translate(269.0,133.9) translate(-10.3,-4.0)">
      <g id="g-12">
        <svg xmlns:xlink="http://www.w3.org/1999/xlink" style="vertical-align: -0.200px" width="10.320px" height="8.000px" role="img" focusable="false" viewBox="0 -431 570 442" x="0.0" y="0.0">
          <defs>
            <path id="MJX-13-TEX-I-1D70B" d="M132 -11Q98 -11 98 22V33L111 61Q186 219 220 334L228 358H196Q158 358 142 355T103 336Q92 329 81 318T62 297T53 285Q51 284 38 284Q19 284 19 294Q19 300 38 329T93 391T164 429Q171 431 389 431Q549 431 553 430Q573 423 573 402Q573 371 541 360Q535 358 472 358H408L405 341Q393 269 393 222Q393 170 402 129T421 65T431 37Q431 20 417 5T381 -10Q370 -10 363 -7T347 17T331 77Q330 86 330 121Q330 170 339 226T357 318T367 358H269L268 354Q268 351 249 275T206 114T175 17Q164 -11 132 -11Z"/>
          </defs>
          <g stroke="currentColor" fill="currentColor" stroke-width="0" transform="scale(1,-1)">
            <g data-mml-node="math">
              <g data-mml-node="mi" data-semantic-type="identifier" data-semantic-role="greekletter" data-semantic-font="italic" data-semantic-id="0" data-semantic-speech="">
                <use data-c="1D70B" xlink:href="#MJX-13-TEX-I-1D70B"/>
              </g>
            </g>
          </g>
        </svg>
      </g>
    </g>
    <g id="label-12" transform="translate(269.0,12.7) translate(-19.4,-6.1)">
      <g id="g-13">
        <svg xmlns:xlink="http://www.w3.org/1999/xlink" style="vertical-align: -0.200px" width="19.368px" height="12.256px" role="img" focusable="false" viewBox="0 -666 1070 677" x="0.0" y="0.0">
          <defs>
            <path id="MJX-14-TEX-N-32" d="M109 429Q82 429 66 447T50 491Q50 562 103 614T235 666Q326 666 387 610T449 465Q449 422 429 383T381 315T301 241Q265 210 201 149L142 93L218 92Q375 92 385 97Q392 99 409 186V189H449V186Q448 183 436 95T421 3V0H50V19V31Q50 38 56 46T86 81Q115 113 136 137Q145 147 170 174T204 211T233 244T261 278T284 308T305 340T320 369T333 401T340 431T343 464Q343 527 309 573T212 619Q179 619 154 602T119 569T109 550Q109 549 114 549Q132 549 151 535T170 489Q170 464 154 447T109 429Z"/>
            <path id="MJX-14-TEX-N-2062" d=""/>
            <path id="MJX-14-TEX-I-1D70B" d="M132 -11Q98 -11 98 22V33L111 61Q186 219 220 334L228 358H196Q158 358 142 355T103 336Q92 329 81 318T62 297T53 285Q51 284 38 284Q19 284 19 294Q19 300 38 329T93 391T164 429Q171 431 389 431Q549 431 553 430Q573 423 573 402Q573 371 541 360Q535 358 472 358H408L405 341Q393 269 393 222Q393 170 402 129T421 65T431 37Q431 20 417 5T381 -10Q370 -10 363 -7T347 17T331 77Q330 86 330 121Q330 170 339 226T357 318T367 358H269L268 354Q268 351 249 275T206 114T175 17Q164 -11 132 -11Z"/>
          </defs>
          <g stroke="currentColor" fill="currentColor" stroke-width="0" transform="scale(1,-1)">
            <g data-mml-node="math" data-semantic-type="infixop" data-semantic-role="implicit" data-semantic-id="3" data-semantic-children="0,1" data-semantic-content="2" data-semantic-speech="">
              <g data-mml-node="mn" data-semantic-type="number" data-semantic-role="integer" data-semantic-font="normal" data-semantic-id="0" data-semantic-parent="3" data-semantic-speech="">
                <use data-c="32" xlink:href="#MJX-14-TEX-N-32"/>
              </g>
              <g data-mml-node="mo" data-semantic-type="operator" data-semantic-role="multiplication" data-semantic-id="2" data-semantic-parent="3" data-semantic-added="true" data-semantic-operator="infixop,⁢" data-semantic-speech="" transform="translate(500,0)">
                <use data-c="2062" xlink:href="#MJX-14-TEX-N-2062"/>
              </g>
              <g data-mml-node="mi" data-semantic-type="identifier" data-semantic-role="greekletter" data-semantic-font="italic" data-semantic-id="1" data-semantic-parent="3" data-semantic-speech="" transform="translate(500,0)">
                <use data-c="1D70B" xlink:href="#MJX-14-TEX-I-1D70B"/>
              </g>
            </g>
          </g>
        </svg>
      </g>
    </g>
  </g>
  <path id="graph" stroke="blue" stroke-width="2" fill="none" d="M 30.0 217.2 L 35.0 216.5 L 40.0 216.5 L 45.0 217.1 L 50.0 218.4 L 55.0 220.2 L 60.0 222.7 L 65.0 225.7 L 70.0 229.2 L 75.0 233.1 L 80.0 237.4 L 85.0 242.0 L 90.0 246.8 L 95.0 251.7 L 100.0 256.7 L 105.0 261.7 L 110.0 266.5 L 115.0 271.2 L 120.0 275.6 L 125.0 279.6 L 130.0 283.3 L 135.0 286.4 L 140.0 289.0 L 145.0 291.1 L 150.0 292.5 L 155.0 293.4 L 160.0 293.5 L 165.0 293.1 L 170.0 292.0 L 175.0 290.2 L 180.0 287.9 L 185.0 285.0 L 190.0 281.7 L 195.0 277.8 L 200.0 273.6 L 205.0 269.1 L 210.0 264.3 L 215.0 259.4 L 220.0 254.4 L 225.0 249.4 L 230.0 244.6 L 235.0 239.8 L 240.0 235.4 L 245.0 231.3 L 250.0 227.5 L 255.0 224.3 L 260.0 221.5 L 265.0 219.3 L 270.0 217.7 L 275.0 216.8 L 280.0 216.4 L 285.0 216.8 L 290.0 217.7 L 295.0 219.3 L 300.0 221.5 L 305.0 224.3 L 310.0 227.5 L 315.0 231.3 L 320.0 235.4 L 325.0 239.8 L 330.0 244.6 L 335.0 249.4 L 340.0 254.4 L 345.0 259.4 L 350.0 264.3 L 355.0 269.1 L 360.0 273.6 L 365.0 277.8 L 370.0 281.7 L 375.0 285.0 L 380.0 287.9 L 385.0 290.2 L 390.0 292.0 L 395.0 293.1 L 400.0 293.5 L 405.0 293.4 L 410.0 292.5 L 415.0 291.1 L 420.0 289.0 L 425.0 286.4 L 430.0 283.3 L 435.0 279.6 L 440.0 275.6 L 445.0 271.2 L 450.0 266.5 L 455.0 261.7 L 460.0 256.7 L 465.0 251.7 L 470.0 246.8 L 475.0 242.0 L 480.0 237.4 L 485.0 233.1 L 490.0 229.2 L 495.0 225.7 L 500.0 222.7 L 505.0 220.2 L 510.0 218.4 L 515.0 217.1 L 520.0 216.5 L 525.0 216.5 L 530.0 217.2" clip-path="url(#clipPath-1)"/>
  <path id="graph" stroke="blue" stroke-width="2" fill="none" d="M 30.0 505.0 L 35.0 500.0 L 40.0 495.0 L 45.0 490.0 L 50.0 485.0 L 55.0 480.0 L 60.0 475.0 L 65.0 470.0 L 70.0 465.0 L 75.0 460.0 L 80.0 455.0 L 85.0 450.0 L 90.0 445.0 L 95.0 440.0 L 100.0 435.0 L 105.0 430.0 L 110.0 425.0 L 115.0 420.0 L 120.0 415.0 L 125.0 410.0 L 130.0 405.0 L 135.0 400.0 L 140.0 395.0 L 145.0 390.0 L 150.0 385.0 L 155.0 380.0 L 160.0 375.0 L 165.0 370.0 L 170.0 365.0 L 175.0 360.0 L 180.0 355.0 L 185.0 350.0 L 190.0 345.0 L 195.0 340.0 L 200.0 335.0 L 205.0 330.0 L 210.0 325.0 L 215.0 320.0 L 220.0 315.0 L 225.0 310.0 L 230.0 305.0 L 235.0 300.0 L 240.0 295.0 L 245.0 290.0 L 250.0 285.0 L 255.0 280.0 L 260.0 275.0 L 265.0 270.0 L 270.0 265.0 L 275.0 260.0 L 280.0 255.0 L 285.0 250.0 L 290.0 245.0 L 295.0 240.0 L 300.0 235.0 L 305.0 230.0 L 310.0 225.0 L 315.0 220.0 L 320.0 215.0 L 325.0 210.0 L 330.0 205.0 L 335.0 200.0 L 340.0 195.0 L 345.0 190.0 L 350.0 185.0 L 355.0 180.0 L 360.0 175.0 L 365.0 170.0 L 370.0 165.0 L 375.0 160.0 L 380.0 155.0 L 385.0 150.0 L 390.0 145.0 L 395.0 140.0 L 400.0 135.0 L 405.0 130.0 L 410.0 125.0 L 415.0 120.0 L 420.0 115.0 L 425.0 110.0 L 430.0 105.0 L 435.0 100.0 L 440.0 95.0 L 445.0 90.0 L 450.0 85.0 L 455.0 80.0 L 460.0 75.0 L 465.0 70.0 L 470.0 65.0 L 475.0 60.0 L 480.0 55.0 L 485.0 50.0 L 490.0 45.0 L 495.0 40.0 L 500.0 35.0 L 505.0 30.0 L 510.0 25.0 L 515.0 20.0 L 520.0 15.0 L 525.0 10.0 L 530.0 5.0" clip-path="url(#clipPath-1)"/>
</svg>
